{"title":"Sin City 2005 Re-Recut, Extended, Unrated - only credits at the","uid":7482368,"size":10134300152,"categoryP":"video","categoryS":"hd___movies","magnet":"?xt=urn:btih:dfa92db7b9c3947a54022ac6876360feeb8ffa31&amp;dn=Sin+City+2005+Re-Recut%2C+Extended%2C+Unrated+-+only+credits+at+the+&amp;tr=udp%3A%2F%2Ftracker.openbittorrent.com%3A80&amp;tr=udp%3A%2F%2Fopen.demonii.com%3A1337&amp;tr=udp%3A%2F%2Ftracker.coppersurfer.tk%3A6969&amp;tr=udp%3A%2F%2Fexodus.desync.com%3A6969","seeders":1,"leechers":0,"uploader":"sounddd","files":1,"time":1343474095,"description":"Sin City 2005 Re-Recut, Extended, Unrated\n\n\nWhat's always bugged me about the Sin City Recut is the credits after every stupid part. This might be fun if you watch them seperatly, but seriously, who the hell does that anyway? \n\nWell, this version fixes that, no credits after each story, only the credits of the theatrical version at the end. The sound is just a tad bit cut, but I'm sure you won't mind.\n\nUnfortunately no AC3 surround audio, just plain mp3 2.0 ... and I do not want to invest all that time again downloading the source files since I've deleted them since.\n\nComment on whether you like this version, or not. The quality of the video should be superb.\n\nHere's the mediainfo specs for the file:\n\n\nFormat                                   : Matroska\nFormat version                           : Version 2\nFile size                                : 9.44 GiB\nDuration                                 : 2h 10mn\nOverall bit rate                         : 10.4 Mbps\nEncoded date                             : UTC 2012-05-19 17:39:09\nWriting application                      : mkvmerge v5.5.0 ('Healer') built on Apr  6 2012 21:43:24\nWriting library                          : libebml v1.2.3 + libmatroska v1.3.0\n\nVideo\nID                                       : 1\nFormat                                   : MPEG-4 Visual\nFormat profile                           : Simple@L3\nFormat settings, BVOP                    : No\nFormat settings, QPel                    : No\nFormat settings, GMC                     : No warppoints\nFormat settings, Matrix                  : Default (H.263)\nCodec ID                                 : XVID\nCodec ID/Hint                            : XviD\nDuration                                 : 2h 10mn\nBit rate                                 : 9 854 Kbps\nWidth                                    : 1 920 pixels\nHeight                                   : 1 040 pixels\nDisplay aspect ratio                     : 1.85:1\nFrame rate                               : 23.976 fps\nColor space                              : YUV\nChroma subsampling                       : 4:2:0\nBit depth                                : 8 bits\nScan type                                : Progressive\nCompression mode                         : Lossy\nBits/(Pixel*Frame)                       : 0.206\nStream size                              : 8.96 GiB (95%)\nWriting library                          : XviD 64\nDefault                                  : Yes\nForced                                   : No\n\nAudio\nID                                       : 2\nFormat                                   : MPEG Audio\nFormat version                           : Version 1\nFormat profile                           : Layer 3\nMuxing mode                              : Header stripping\nCodec ID                                 : A_MPEG/L3\nCodec ID/Hint                            : MP3\nDuration                                 : 2h 10mn\nBit rate mode                            : Constant\nBit rate                                 : 320 Kbps\nChannel(s)                               : 2 channels\nSampling rate                            : 44.1 KHz\nCompression mode                         : Lossy\nStream size                              : 298 MiB (3%)\nWriting library                          : LAME3.99.1\nDefault                                  : Yes\nForced                                   : No\n\nText\nID                                       : 3\nFormat                                   : UTF-8\nCodec ID                                 : S_TEXT/UTF8\nCodec ID/Info                            : UTF-8 Plain Text\nDefault                                  : Yes\nForced                                   : No\n","torrent":{"xt":"urn:btih:dfa92db7b9c3947a54022ac6876360feeb8ffa31","amp;dn":"Sin+City+2005+Re-Recut%2C+Extended%2C+Unrated+-+only+credits+at+the+","amp;tr":["udp%3A%2F%2Ftracker.openbittorrent.com%3A80","udp%3A%2F%2Fopen.demonii.com%3A1337","udp%3A%2F%2Ftracker.coppersurfer.tk%3A6969","udp%3A%2F%2Fexodus.desync.com%3A6969"],"infoHash":"dfa92db7b9c3947a54022ac6876360feeb8ffa31","infoHashBuffer":{"type":"Buffer","data":[223,169,45,183,185,195,148,122,84,2,42,198,135,99,96,254,235,143,250,49]},"announce":[],"urlList":[]}}